<svg width="680" viewBox="0 0 680 570" xmlns="http://www.w3.org/2000/svg" style="background:#ffffff;font-family:Arial,sans-serif;">

<defs>
  <marker id="arrow" viewBox="0 0 10 10" refX="8" refY="5" markerWidth="6" markerHeight="6" orient="auto-start-reverse">
    <path d="M2 1L8 5L2 9" fill="none" stroke="#888780" stroke-width="1.5" stroke-linecap="round" stroke-linejoin="round"/>
  </marker>
  <marker id="arrow2" viewBox="0 0 10 10" refX="2" refY="5" markerWidth="6" markerHeight="6" orient="auto">
    <path d="M8 1L2 5L8 9" fill="none" stroke="#888780" stroke-width="1.5" stroke-linecap="round" stroke-linejoin="round"/>
  </marker>
</defs>

<!-- Row 1: Inputs -->
<rect x="50" y="40" width="130" height="44" rx="8" fill="#F1EFE8" stroke="#5F5E5A" stroke-width="0.5"/>
<text x="115" y="67" text-anchor="middle" font-size="14" font-weight="500" fill="#2C2C2A">Fireflies</text>

<rect x="200" y="40" width="130" height="44" rx="8" fill="#F1EFE8" stroke="#5F5E5A" stroke-width="0.5"/>
<text x="265" y="67" text-anchor="middle" font-size="14" font-weight="500" fill="#2C2C2A">Teams</text>

<rect x="350" y="40" width="130" height="44" rx="8" fill="#F1EFE8" stroke="#5F5E5A" stroke-width="0.5"/>
<text x="415" y="67" text-anchor="middle" font-size="14" font-weight="500" fill="#2C2C2A">Documents</text>

<rect x="500" y="40" width="130" height="44" rx="8" fill="#F1EFE8" stroke="#5F5E5A" stroke-width="0.5"/>
<text x="565" y="67" text-anchor="middle" font-size="14" font-weight="500" fill="#2C2C2A">Meetings</text>

<!-- Row 1 to Row 2 arrows -->
<line x1="115" y1="84" x2="115" y2="140" stroke="#888780" stroke-width="1.5" marker-end="url(#arrow)"/>
<line x1="265" y1="84" x2="265" y2="140" stroke="#888780" stroke-width="1.5" marker-end="url(#arrow)"/>
<line x1="415" y1="84" x2="415" y2="140" stroke="#888780" stroke-width="1.5" marker-end="url(#arrow)"/>
<line x1="565" y1="84" x2="565" y2="140" stroke="#888780" stroke-width="1.5" marker-end="url(#arrow)"/>

<!-- Row 2: AI Layer -->
<rect x="80" y="140" width="520" height="56" rx="8" fill="#EEEDFE" stroke="#534AB7" stroke-width="0.5"/>
<text x="340" y="163" text-anchor="middle" font-size="14" font-weight="500" fill="#3C3489">AI processing layer</text>
<text x="340" y="181" text-anchor="middle" font-size="12" fill="#534AB7">Cursor · Lambda · Claude — extracts, compares, creates, flags</text>

<!-- Arrow: AI Layer to Sync container -->
<line x1="340" y1="196" x2="340" y2="260" stroke="#888780" stroke-width="1.5" marker-end="url(#arrow)"/>

<!-- Row 3: Sync & Review Container (dashed) -->
<rect x="70" y="240" width="540" height="84" rx="8" fill="none" stroke="#888780" stroke-width="0.5" stroke-dasharray="4 3"/>
<text x="340" y="254" text-anchor="middle" font-size="11" fill="#888780">Sync &amp; review</text>

<!-- Lambda + API Gateway box -->
<rect x="90" y="260" width="230" height="52" rx="8" fill="#FAEEDA" stroke="#854F0B" stroke-width="0.5"/>
<text x="205" y="281" text-anchor="middle" font-size="14" font-weight="500" fill="#633806">Lambda + API Gateway</text>
<text x="205" y="297" text-anchor="middle" font-size="12" fill="#854F0B">sync engine · web UI</text>

<!-- Bidirectional arrow between Lambda and DynamoDB -->
<line x1="322" y1="286" x2="358" y2="286" stroke="#888780" stroke-width="1.5" marker-start="url(#arrow2)" marker-end="url(#arrow)"/>

<!-- DynamoDB box -->
<rect x="360" y="260" width="230" height="52" rx="8" fill="#FAEEDA" stroke="#854F0B" stroke-width="0.5"/>
<text x="475" y="281" text-anchor="middle" font-size="14" font-weight="500" fill="#633806">DynamoDB</text>
<text x="475" y="297" text-anchor="middle" font-size="12" fill="#854F0B">staged changes</text>

<!-- Arrow: Sync container to Jira -->
<line x1="340" y1="324" x2="340" y2="360" stroke="#888780" stroke-width="1.5" marker-end="url(#arrow)"/>

<!-- Row 4: Systems of Record -->
<rect x="40" y="360" width="165" height="56" rx="8" fill="#E1F5EE" stroke="#0F6E56" stroke-width="0.5"/>
<text x="122" y="383" text-anchor="middle" font-size="14" font-weight="500" fill="#085041">GitHub Repo</text>
<text x="122" y="401" text-anchor="middle" font-size="12" fill="#0F6E56">docs system of record</text>

<rect x="258" y="360" width="165" height="56" rx="8" fill="#E1F5EE" stroke="#0F6E56" stroke-width="0.5"/>
<text x="340" y="383" text-anchor="middle" font-size="14" font-weight="500" fill="#085041">Jira</text>
<text x="340" y="401" text-anchor="middle" font-size="12" fill="#0F6E56">work system of record</text>

<rect x="476" y="360" width="165" height="56" rx="8" fill="#E1F5EE" stroke="#0F6E56" stroke-width="0.5"/>
<text x="558" y="383" text-anchor="middle" font-size="14" font-weight="500" fill="#085041">GitHub Projects</text>
<text x="558" y="401" text-anchor="middle" font-size="12" fill="#0F6E56">dev workspace</text>

<!-- Row 4 horizontal arrows -->
<text x="232" y="378" text-anchor="middle" font-size="12" fill="#444441">doc_link</text>
<line x1="205" y1="388" x2="257" y2="388" stroke="#888780" stroke-width="1.5" marker-end="url(#arrow)"/>
<text x="449" y="378" text-anchor="middle" font-size="12" fill="#444441">Jira Key</text>
<line x1="424" y1="388" x2="475" y2="388" stroke="#888780" stroke-width="1.5" marker-start="url(#arrow2)" marker-end="url(#arrow)"/>

<!-- Row 4 to Row 5 arrows -->
<line x1="122" y1="416" x2="122" y2="450" stroke="#888780" stroke-width="1.5" marker-end="url(#arrow)"/>
<line x1="340" y1="416" x2="340" y2="450" stroke="#888780" stroke-width="1.5" marker-end="url(#arrow)"/>
<line x1="558" y1="416" x2="558" y2="450" stroke="#888780" stroke-width="1.5" marker-end="url(#arrow)"/>

<!-- Row 5: Outputs -->
<rect x="40" y="450" width="165" height="56" rx="8" fill="#E6F1FB" stroke="#185FA5" stroke-width="0.5"/>
<text x="122" y="473" text-anchor="middle" font-size="14" font-weight="500" fill="#0C447C">Confluence</text>
<text x="122" y="491" text-anchor="middle" font-size="12" fill="#185FA5">leadership views</text>

<rect x="258" y="450" width="165" height="56" rx="8" fill="#E6F1FB" stroke="#185FA5" stroke-width="0.5"/>
<text x="340" y="473" text-anchor="middle" font-size="14" font-weight="500" fill="#0C447C">SharePoint</text>
<text x="340" y="491" text-anchor="middle" font-size="12" fill="#185FA5">generated docs</text>

<rect x="476" y="450" width="165" height="56" rx="8" fill="#E6F1FB" stroke="#185FA5" stroke-width="0.5"/>
<text x="558" y="473" text-anchor="middle" font-size="14" font-weight="500" fill="#0C447C">Signals</text>
<text x="558" y="491" text-anchor="middle" font-size="12" fill="#185FA5">project health alerts</text>

<!-- Legend -->
<rect x="40" y="530" width="12" height="12" rx="2" fill="#F1EFE8" stroke="#5F5E5A" stroke-width="0.5"/>
<text x="57" y="541" font-size="12" fill="#444441">Inputs</text>

<rect x="105" y="530" width="12" height="12" rx="2" fill="#EEEDFE" stroke="#534AB7" stroke-width="0.5"/>
<text x="122" y="541" font-size="12" fill="#444441">AI layer</text>

<rect x="175" y="530" width="12" height="12" rx="2" fill="#FAEEDA" stroke="#854F0B" stroke-width="0.5"/>
<text x="192" y="541" font-size="12" fill="#444441">Sync layer</text>

<rect x="262" y="530" width="12" height="12" rx="2" fill="#E1F5EE" stroke="#0F6E56" stroke-width="0.5"/>
<text x="279" y="541" font-size="12" fill="#444441">Systems of record</text>

<rect x="410" y="530" width="12" height="12" rx="2" fill="#E6F1FB" stroke="#185FA5" stroke-width="0.5"/>
<text x="427" y="541" font-size="12" fill="#444441">Generated outputs</text>

</svg>
